{"asset":{"extras":{"author":"SLB (https://sketchfab.com/SLBofficial)","license":"CC-BY-4.0 (http://creativecommons.org/licenses/by/4.0/)","source":"https://sketchfab.com/3d-models/bmw-m4-g82-coupe-free-high-detail-8704e302e4214c849bc607edb294be8a","title":"BMW M4 G82 Coupe ( Free + High-Detail )"},"generator":"OpenRoad G82 preparation; geometry welded at 0.1 mm, original triangle count preserved","version":"2.0"},"scene":0,"scenes":[{"nodes":[0,1,2,3,4,5,6,7,8,9,10,11,12,13,14,15,16,17,18,19,20,21,22,23,24,25,26,27,28,29,30,31,32,33,34,35,36,37,38,39,40,41,42,43]}],"nodes":[{"name":"Body_model_0_Material.013","mesh":0},{"name":"Steering_model_0_Material.013","mesh":1},{"name":"Body_model_1_Material.004","mesh":2},{"name":"Body_model_2_Material.006","mesh":3},{"name":"Wheel_model_3_Material.002","mesh":4},{"name":"Body_model_4_Material.002","mesh":5},{"name":"Body_model_5_Material.003","mesh":6},{"name":"Steering_model_5_Material.003","mesh":7},{"name":"Body_model_6_Material.008","mesh":8},{"name":"Body_model_7_Material.007","mesh":9},{"name":"Body_model_8_Material.010","mesh":10},{"name":"Steering_model_8_Material.010","mesh":11},{"name":"Body_model_9_Material.029","mesh":12},{"name":"Body_model_10_Material.015","mesh":13},{"name":"Body_model_11_Material.001","mesh":14},{"name":"Body_model_12_Material.001","mesh":15},{"name":"Body_model_13_Material.011","mesh":16},{"name":"Mirror_model_13_Material.011","mesh":17},{"name":"Steering_model_13_Material.011","mesh":18},{"name":"Body_model_14_Material.021","mesh":19},{"name":"Body_model_15_Material.019","mesh":20},{"name":"Body_model_16_Material.014","mesh":21},{"name":"Steering_model_16_Material.014","mesh":22},{"name":"Body_model_17_Material.009","mesh":23},{"name":"Body_model_18_Material.005","mesh":24},{"name":"Steering_model_18_Material.005","mesh":25},{"name":"Body_model_19_","mesh":26},{"name":"Body_model_20_Material.012","mesh":27},{"name":"Wheel_model_21_Material.026","mesh":28},{"name":"Wheel_model_22_Material.024","mesh":29},{"name":"Wheel_model_23_Material.027","mesh":30},{"name":"Steering_model_23_Material.027","mesh":31},{"name":"Caliper_model_24_Material.028","mesh":32},{"name":"Body_model_25_Material.031","mesh":33},{"name":"Steering_model_25_Material.031","mesh":34},{"name":"Body_model_26_Material.030","mesh":35},{"name":"Body_model_27_Material.020","mesh":36},{"name":"Body_model_28_Material.022","mesh":37},{"name":"Body_CRB_Material.017","mesh":38},{"name":"Body_model_35_Material.023","mesh":39},{"name":"Body_REAR HEADLIGHT GLASS_Material.018","mesh":40},{"name":"Body_Glass mesh windows_Material","mesh":41},{"name":"Body_headlight glass_Material.016","mesh":42},{"name":"Wheel_model_3.001_Material.025","mesh":43}],"meshes":[{"name":"Body_model_0_Material.013","primitives":[{"attributes":{"NORMAL":0,"POSITION":1},"indices":2,"material":1,"mode":4}]},{"name":"Steering_model_0_Material.013","primitives":[{"attributes":{"NORMAL":3,"POSITION":4},"indices":5,"material":1,"mode":4}]},{"name":"Body_model_1_Material.004","primitives":[{"attributes":{"NORMAL":6,"POSITION":7},"indices":8,"material":2,"mode":4}]},{"name":"Body_model_2_Material.006","primitives":[{"attributes":{"NORMAL":9,"POSITION":10},"indices":11,"material":3,"mode":4}]},{"name":"Wheel_model_3_Material.002","primitives":[{"attributes":{"NORMAL":12,"POSITION":13},"indices":14,"material":4,"mode":4}]},{"name":"Body_model_4_Material.002","primitives":[{"attributes":{"NORMAL":15,"POSITION":16},"indices":17,"material":4,"mode":4}]},{"name":"Body_model_5_Material.003","primitives":[{"attributes":{"NORMAL":18,"POSITION":19},"indices":20,"material":5,"mode":4}]},{"name":"Steering_model_5_Material.003","primitives":[{"attributes":{"NORMAL":21,"POSITION":22},"indices":23,"material":5,"mode":4}]},{"name":"Body_model_6_Material.008","primitives":[{"attributes":{"NORMAL":24,"POSITION":25},"indices":26,"material":6,"mode":4}]},{"name":"Body_model_7_Material.007","primitives":[{"attributes":{"NORMAL":27,"POSITION":28},"indices":29,"material":7,"mode":4}]},{"name":"Body_model_8_Material.010","primitives":[{"attributes":{"NORMAL":30,"POSITION":31},"indices":32,"material":8,"mode":4}]},{"name":"Steering_model_8_Material.010","primitives":[{"attributes":{"NORMAL":33,"POSITION":34},"indices":35,"material":8,"mode":4}]},{"name":"Body_model_9_Material.029","primitives":[{"attributes":{"NORMAL":36,"POSITION":37},"indices":38,"material":9,"mode":4}]},{"name":"Body_model_10_Material.015","primitives":[{"attributes":{"NORMAL":39,"POSITION":40},"indices":41,"material":10,"mode":4}]},{"name":"Body_model_11_Material.001","primitives":[{"attributes":{"NORMAL":42,"POSITION":43},"indices":44,"material":11,"mode":4}]},{"name":"Body_model_12_Material.001","primitives":[{"attributes":{"NORMAL":45,"POSITION":46},"indices":47,"material":11,"mode":4}]},{"name":"Body_model_13_Material.011","primitives":[{"attributes":{"NORMAL":48,"POSITION":49},"indices":50,"material":12,"mode":4}]},{"name":"Mirror_model_13_Material.011","primitives":[{"attributes":{"NORMAL":51,"POSITION":52},"indices":53,"material":12,"mode":4}]},{"name":"Steering_model_13_Material.011","primitives":[{"attributes":{"NORMAL":54,"POSITION":55},"indices":56,"material":12,"mode":4}]},{"name":"Body_model_14_Material.021","primitives":[{"attributes":{"NORMAL":57,"POSITION":58},"indices":59,"material":13,"mode":4}]},{"name":"Body_model_15_Material.019","primitives":[{"attributes":{"NORMAL":60,"POSITION":61,"TEXCOORD_0":62},"indices":63,"material":14,"mode":4}]},{"name":"Body_model_16_Material.014","primitives":[{"attributes":{"NORMAL":64,"POSITION":65,"TEXCOORD_0":66},"indices":67,"material":15,"mode":4}]},{"name":"Steering_model_16_Material.014","primitives":[{"attributes":{"NORMAL":68,"POSITION":69,"TEXCOORD_0":70},"indices":71,"material":15,"mode":4}]},{"name":"Body_model_17_Material.009","primitives":[{"attributes":{"NORMAL":72,"POSITION":73},"indices":74,"material":16,"mode":4}]},{"name":"Body_model_18_Material.005","primitives":[{"attributes":{"NORMAL":75,"POSITION":76},"indices":77,"material":17,"mode":4}]},{"name":"Steering_model_18_Material.005","primitives":[{"attributes":{"NORMAL":78,"POSITION":79},"indices":80,"material":17,"mode":4}]},{"name":"Body_model_19_","primitives":[{"attributes":{"NORMAL":81,"POSITION":82},"indices":83,"material":0,"mode":4}]},{"name":"Body_model_20_Material.012","primitives":[{"attributes":{"NORMAL":84,"POSITION":85},"indices":86,"material":18,"mode":4}]},{"name":"Wheel_model_21_Material.026","primitives":[{"attributes":{"NORMAL":87,"POSITION":88,"TANGENT":89,"TEXCOORD_0":90},"indices":91,"material":19,"mode":4}]},{"name":"Wheel_model_22_Material.024","primitives":[{"attributes":{"NORMAL":92,"POSITION":93,"TEXCOORD_0":94},"indices":95,"material":20,"mode":4}]},{"name":"Wheel_model_23_Material.027","primitives":[{"attributes":{"NORMAL":96,"POSITION":97,"TEXCOORD_0":98},"indices":99,"material":21,"mode":4}]},{"name":"Steering_model_23_Material.027","primitives":[{"attributes":{"NORMAL":100,"POSITION":101,"TEXCOORD_0":102},"indices":103,"material":21,"mode":4}]},{"name":"Caliper_model_24_Material.028","primitives":[{"attributes":{"NORMAL":104,"POSITION":105},"indices":106,"material":22,"mode":4}]},{"name":"Body_model_25_Material.031","primitives":[{"attributes":{"NORMAL":107,"POSITION":108,"TEXCOORD_0":109},"indices":110,"material":23,"mode":4}]},{"name":"Steering_model_25_Material.031","primitives":[{"attributes":{"NORMAL":111,"POSITION":112,"TEXCOORD_0":113},"indices":114,"material":23,"mode":4}]},{"name":"Body_model_26_Material.030","primitives":[{"attributes":{"NORMAL":115,"POSITION":116},"indices":117,"material":24,"mode":4}]},{"name":"Body_model_27_Material.020","primitives":[{"attributes":{"NORMAL":118,"POSITION":119},"indices":120,"material":25,"mode":4}]},{"name":"Body_model_28_Material.022","primitives":[{"attributes":{"NORMAL":121,"POSITION":122},"indices":123,"material":26,"mode":4}]},{"name":"Body_CRB_Material.017","primitives":[{"attributes":{"NORMAL":124,"POSITION":125,"TEXCOORD_0":126},"indices":127,"material":27,"mode":4}]},{"name":"Body_model_35_Material.023","primitives":[{"attributes":{"NORMAL":128,"POSITION":129},"indices":130,"material":28,"mode":4}]},{"name":"Body_REAR HEADLIGHT GLASS_Material.018","primitives":[{"attributes":{"NORMAL":131,"POSITION":132},"indices":133,"material":29,"mode":4}]},{"name":"Body_Glass mesh windows_Material","primitives":[{"attributes":{"NORMAL":134,"POSITION":135},"indices":136,"material":30,"mode":4}]},{"name":"Body_headlight glass_Material.016","primitives":[{"attributes":{"NORMAL":137,"POSITION":138},"indices":139,"material":31,"mode":4}]},{"name":"Wheel_model_3.001_Material.025","primitives":[{"attributes":{"NORMAL":140,"POSITION":141},"indices":142,"material":32,"mode":4}]}],"materials":[{"doubleSided":true,"name":"model_19__0","pbrMetallicRoughness":{"metallicFactor":0,"roughnessFactor":0.6}},{"doubleSided":true,"extensions":{"KHR_materials_clearcoat":{"clearcoatFactor":1,"clearcoatRoughnessFactor":0.4860967195328595}},"name":"Material.013","pbrMetallicRoughness":{"baseColorFactor":[0.7076012526892669,0.7076012526892669,0.7076012526892669,1],"metallicFactor":0.7177164730406796,"roughnessFactor":0}},{"doubleSided":true,"name":"Material.004","pbrMetallicRoughness":{"baseColorFactor":[0.00403841,0.00403841,0.00403841,1],"metallicFactor":0,"roughnessFactor":0.9990969840718985}},{"doubleSided":true,"name":"Material.006","pbrMetallicRoughness":{"baseColorFactor":[0.388979,0.504976,0,1],"metallicFactor":0,"roughnessFactor":0.9007508324732847}},{"doubleSided":true,"extensions":{"KHR_materials_clearcoat":{"clearcoatFactor":1,"clearcoatRoughnessFactor":0.21790542599748874}},"name":"Material.002","pbrMetallicRoughness":{"metallicFactor":0.6994307030269045,"roughnessFactor":0.391998147041972}},{"doubleSided":true,"extensions":{"KHR_materials_clearcoat":{"clearcoatFactor":1,"clearcoatRoughnessFactor":0.9005741731784325},"KHR_materials_specular":{"specularColorFactor":[1,1,1],"specularFactor":0.5958113396155111}},"name":"Material.003","pbrMetallicRoughness":{"baseColorFactor":[0.5329208617282817,0.5329208617282817,0.5329208617282817,1],"roughnessFactor":0.42247443039826416}},{"doubleSided":true,"name":"Material.008","pbrMetallicRoughness":{"baseColorFactor":[0.13128,0.13128,0.13128,1],"metallicFactor":0.35809632943643255,"roughnessFactor":0.28228352695932035}},{"doubleSided":true,"name":"Material.007","pbrMetallicRoughness":{"baseColorFactor":[0.0143487,0.0143487,0.0143487,1],"metallicFactor":0,"roughnessFactor":0.3554266070144214}},{"doubleSided":true,"extensions":{"KHR_materials_clearcoat":{"clearcoatFactor":1,"clearcoatRoughnessFactor":0.7238117297119381}},"name":"Material.010","pbrMetallicRoughness":{"baseColorFactor":[0.179049,0.179049,0.179049,1],"metallicFactor":0.6811449330131292,"roughnessFactor":0.36152186368567985}},{"doubleSided":true,"name":"Material.029","pbrMetallicRoughness":{"baseColorFactor":[0.0825621,0.0825621,0.0825621,1],"metallicFactor":0,"roughnessFactor":0.9815385532034865}},{"doubleSided":true,"extensions":{"KHR_materials_specular":{"specularColorFactor":[1,1,1],"specularFactor":1}},"name":"Material.015","pbrMetallicRoughness":{"baseColorFactor":[0,0.18648417912592075,1,1],"metallicFactor":0.7664785264107471,"roughnessFactor":0.14818788019163498}},{"doubleSided":true,"extensions":{"KHR_materials_clearcoat":{"clearcoatFactor":1,"clearcoatRoughnessFactor":0.08990503590106179},"KHR_materials_specular":{"specularColorFactor":[1,1,1],"specularFactor":1}},"name":"Material.001","pbrMetallicRoughness":{"baseColorFactor":[0.9213560469775335,1,0,1],"metallicFactor":0.7847642964245224,"roughnessFactor":0.44685545708329777}},{"doubleSided":true,"emissiveFactor":[1,1,1],"extensions":{"KHR_materials_emissive_strength":{"emissiveStrength":10}},"name":"Material.011","pbrMetallicRoughness":{"baseColorFactor":[0.5612388103215987,0.5612388103215987,0.5612388103215987,1],"metallicFactor":0.6445733929855786,"roughnessFactor":0.09942582682156753}},{"doubleSided":true,"name":"Material.021","pbrMetallicRoughness":{"baseColorFactor":[0.7579697625090449,0.7579697625090449,0.7579697625090449,1],"roughnessFactor":0.2761882702880619}},{"doubleSided":true,"extensions":{"KHR_materials_clearcoat":{"clearcoatFactor":1,"clearcoatRoughnessFactor":0.6811449330131292},"KHR_materials_specular":{"specularColorFactor":[1,1,1],"specularFactor":0.608001852958028}},"name":"Material.019","pbrMetallicRoughness":{"roughnessFactor":0.5078080237958821}},{"doubleSided":true,"name":"Material.014","pbrMetallicRoughness":{"baseColorFactor":[0.00426323,0.020808,0.800243,1],"metallicFactor":0,"roughnessFactor":0.9835501895205673}},{"doubleSided":true,"name":"Material.009","pbrMetallicRoughness":{"baseColorFactor":[0.738848,0.738848,0.738848,1],"metallicFactor":0,"roughnessFactor":0.8347885646960236}},{"doubleSided":true,"name":"Material.005","pbrMetallicRoughness":{"baseColorFactor":[0,0,0,1],"metallicFactor":0}},{"doubleSided":true,"extensions":{"KHR_materials_clearcoat":{"clearcoatFactor":1,"clearcoatRoughnessFactor":0.07161926588728651}},"name":"Material.012","pbrMetallicRoughness":{"baseColorFactor":[0.0293413,0.0293413,0.0293413,1],"roughnessFactor":0.1116163401640844}},{"doubleSided":true,"extensions":{"KHR_materials_clearcoat":{"clearcoatFactor":1,"clearcoatNormalTexture":{"index":0},"clearcoatRoughnessFactor":0.9127646865209493},"KHR_materials_specular":{"specularColorFactor":[1,1,1],"specularFactor":0}},"name":"Material.026","normalTexture":{"index":0},"pbrMetallicRoughness":{"metallicFactor":0.7116212163694212,"roughnessFactor":0.6967609806048933}},{"doubleSided":true,"extensions":{"KHR_materials_specular":{"specularColorFactor":[1,1,1],"specularFactor":1}},"name":"Material.024","pbrMetallicRoughness":{"baseColorTexture":{"index":1},"metallicFactor":0,"roughnessFactor":0.46514122709707306}},{"doubleSided":true,"name":"Material.027","pbrMetallicRoughness":{"baseColorTexture":{"index":2},"metallicFactor":0,"roughnessFactor":0.9826383556534771}},{"doubleSided":true,"name":"Material.028","pbrMetallicRoughness":{"baseColorFactor":[0.06315964807290675,0,0.004100297736708756,1],"metallicFactor":0,"roughnessFactor":0.9852616036669649}},{"doubleSided":true,"extensions":{"KHR_materials_clearcoat":{"clearcoatFactor":1,"clearcoatRoughnessFactor":0.5592397995879607},"KHR_materials_specular":{"specularColorFactor":[1,1,1],"specularFactor":0.37638209945020784}},"name":"Material.031","pbrMetallicRoughness":{"baseColorTexture":{"index":3},"metallicFactor":0,"roughnessFactor":0.550474820494691}},{"doubleSided":true,"name":"Material.030","pbrMetallicRoughness":{"metallicFactor":0.821335836452073,"roughnessFactor":0.5199985371383989}},{"doubleSided":true,"emissiveFactor":[0.01,0,0],"name":"Material.020","pbrMetallicRoughness":{"baseColorFactor":[0.800055,0,0.0056851599999999634,1],"metallicFactor":0.8883836598359156,"roughnessFactor":0.23961673026051133}},{"doubleSided":true,"emissiveFactor":[0.08044651363453362,0,0.00017994984624420434],"extensions":{"KHR_materials_emissive_strength":{"emissiveStrength":3.8247735612146627}},"name":"Material.022","pbrMetallicRoughness":{"baseColorFactor":[0.8000859999999999,0,0.0029746600000000035,1],"roughnessFactor":0.3371408370006461}},{"doubleSided":true,"extensions":{"KHR_materials_clearcoat":{"clearcoatFactor":1,"clearcoatNormalTexture":{"index":4},"clearcoatRoughnessFactor":0.33981055942265725},"KHR_materials_specular":{"specularColorFactor":[1,1,1],"specularFactor":0.5775255696017358}},"name":"Material.017","pbrMetallicRoughness":{"baseColorFactor":[0.0006849502726102096,0.0006849502726102096,0.0006849502726102096,1],"metallicFactor":0.9980982799185673,"roughnessFactor":0.6175226438785337}},{"doubleSided":true,"extensions":{"KHR_materials_clearcoat":{"clearcoatFactor":1,"clearcoatRoughnessFactor":1}},"name":"Material.023","pbrMetallicRoughness":{"baseColorFactor":[0.169681,0,0,1],"metallicFactor":0.650668649656837,"roughnessFactor":0.550474820494691}},{"alphaMode":"BLEND","doubleSided":true,"name":"Material.018","pbrMetallicRoughness":{"baseColorFactor":[0.24695600000000004,0.12281499999999988,0.14325900000000003,0.4556204361765674],"metallicFactor":0.4739062061903426,"roughnessFactor":0.1299021101778597}},{"alphaMode":"BLEND","doubleSided":true,"extensions":{"KHR_materials_clearcoat":{"clearcoatFactor":1,"clearcoatRoughnessFactor":0.23009593934000558}},"name":"Material","pbrMetallicRoughness":{"baseColorFactor":[0.14430706441529761,0.14430706441529761,0.14430706441529761,0.6384781363143202],"metallicFactor":0.5592397995879607,"roughnessFactor":0}},{"alphaMode":"BLEND","doubleSided":true,"extensions":{"KHR_materials_specular":{"specularColorFactor":[1,1,1],"specularFactor":0.9980982799185673}},"name":"Material.016","pbrMetallicRoughness":{"baseColorFactor":[0.4921919762041179,0.4921919762041179,0.4921919762041179,0.11428606258609549],"metallicFactor":0.9859077665760504,"roughnessFactor":0.5809511038509831}},{"doubleSided":true,"name":"Material.025","pbrMetallicRoughness":{"baseColorFactor":[0.0508741,0.0508741,0.0508741,1],"metallicFactor":0,"roughnessFactor":0.9886242054105878}}],"textures":[{"sampler":0,"source":0},{"sampler":0,"source":1},{"sampler":0,"source":2},{"sampler":0,"source":3},{"sampler":0,"source":4}],"images":[{"uri":"textures/Material.026_normal.png"},{"uri":"textures/Material.024_baseColor.png"},{"uri":"textures/Material.027_baseColor.png"},{"uri":"textures/Material.031_baseColor.png"},{"uri":"textures/Material.017_clearcoat_normal.png"}],"samplers":[{"magFilter":9729,"minFilter":9987,"wrapS":10497,"wrapT":10497}],"extensionsUsed":["KHR_materials_clearcoat","KHR_materials_specular","KHR_materials_emissive_strength"],"accessors":[{"bufferView":0,"componentType":5126,"count":91487,"type":"VEC3"},{"bufferView":1,"componentType":5126,"count":91487,"type":"VEC3","min":[-0.8847314119338989,0.07037001848220825,-2.3521766662597656],"max":[0.8847307562828064,1.3160622119903564,2.3942315578460693]},{"bufferView":2,"componentType":5125,"count":278616,"type":"SCALAR"},{"bufferView":3,"componentType":5126,"count":434,"type":"VEC3"},{"bufferView":4,"componentType":5126,"count":434,"type":"VEC3","min":[0.39017337560653687,0.7378877997398376,0.3147881031036377],"max":[0.40216490626335144,0.743203341960907,0.32000306248664856]},{"bufferView":5,"componentType":5123,"count":1134,"type":"SCALAR"},{"bufferView":6,"componentType":5126,"count":64077,"type":"VEC3"},{"bufferView":7,"componentType":5126,"count":64077,"type":"VEC3","min":[-0.91266930103302,0.1409238576889038,-2.3970000743865967],"max":[0.91266930103302,0.6927881240844727,2.3755781650543213]},{"bufferView":8,"componentType":5123,"count":358905,"type":"SCALAR"},{"bufferView":9,"componentType":5126,"count":54883,"type":"VEC3"},{"bufferView":10,"componentType":5126,"count":54883,"type":"VEC3","min":[-0.630486249923706,0.34921735525131226,-0.46639350056648254],"max":[0.6304880380630493,1.2425132989883423,0.26662135124206543]},{"bufferView":11,"componentType":5123,"count":181428,"type":"SCALAR"},{"bufferView":12,"componentType":5126,"count":67676,"type":"VEC3"},{"bufferView":13,"componentType":5126,"count":67676,"type":"VEC3","min":[-0.9267329573631287,0.06542979180812836,-1.5980216264724731],"max":[0.9279282093048096,0.6161114573478699,1.8048570156097412]},{"bufferView":14,"componentType":5125,"count":218640,"type":"SCALAR"},{"bufferView":15,"componentType":5126,"count":56042,"type":"VEC3"},{"bufferView":16,"componentType":5126,"count":56042,"type":"VEC3","min":[-1.0210769176483154,0.23086577653884888,-2.395033597946167],"max":[1.021072506904602,1.1137744188308716,0.722659707069397]},{"bufferView":17,"componentType":5123,"count":173349,"type":"SCALAR"},{"bufferView":18,"componentType":5126,"count":90005,"type":"VEC3"},{"bufferView":19,"componentType":5126,"count":90005,"type":"VEC3","min":[-0.9191794991493225,0.22951838374137878,-2.362886428833008],"max":[0.9191786050796509,1.3932873010635376,2.356417417526245]},{"bufferView":20,"componentType":5125,"count":276084,"type":"SCALAR"},{"bufferView":21,"componentType":5126,"count":2677,"type":"VEC3"},{"bufferView":22,"componentType":5126,"count":2677,"type":"VEC3","min":[0.24346283078193665,0.7248620986938477,0.3117760121822357],"max":[0.541505753993988,0.9233834743499756,0.43238580226898193]},{"bufferView":23,"componentType":5123,"count":8340,"type":"SCALAR"},{"bufferView":24,"componentType":5126,"count":73917,"type":"VEC3"},{"bufferView":25,"componentType":5126,"count":73917,"type":"VEC3","min":[-0.8001540899276733,0.32915735244750977,-1.3402622938156128],"max":[0.8001534938812256,1.238127589225769,0.9906147122383118]},{"bufferView":26,"componentType":5125,"count":262452,"type":"SCALAR"},{"bufferView":27,"componentType":5126,"count":98129,"type":"VEC3"},{"bufferView":28,"componentType":5126,"count":98129,"type":"VEC3","min":[-0.6324496865272522,0.32665595412254333,-0.44297754764556885],"max":[0.6324468851089478,1.2388956546783447,0.841905415058136]},{"bufferView":29,"componentType":5125,"count":243546,"type":"SCALAR"},{"bufferView":30,"componentType":5126,"count":58649,"type":"VEC3"},{"bufferView":31,"componentType":5126,"count":58649,"type":"VEC3","min":[-0.8374360203742981,0.24670270085334778,-1.8369865417480469],"max":[0.8374365568161011,1.3064062595367432,1.1340348720550537]},{"bufferView":32,"componentType":5123,"count":195858,"type":"SCALAR"},{"bufferView":33,"componentType":5126,"count":7519,"type":"VEC3"},{"bufferView":34,"componentType":5126,"count":7519,"type":"VEC3","min":[0.21800613403320312,0.7085385322570801,0.3095879554748535],"max":[0.5669640302658081,1.0406543016433716,0.48741042613983154]},{"bufferView":35,"componentType":5123,"count":24348,"type":"SCALAR"},{"bufferView":36,"componentType":5126,"count":27999,"type":"VEC3"},{"bufferView":37,"componentType":5126,"count":27999,"type":"VEC3","min":[-0.9006969332695007,0.23212948441505432,-2.281251907348633],"max":[0.9002055525779724,0.941080629825592,2.350625991821289]},{"bufferView":38,"componentType":5123,"count":67296,"type":"SCALAR"},{"bufferView":39,"componentType":5126,"count":9829,"type":"VEC3"},{"bufferView":40,"componentType":5126,"count":9829,"type":"VEC3","min":[-0.7718932032585144,0.6494307518005371,-2.321232318878174],"max":[0.7718932628631592,0.9697271585464478,2.332902669906616]},{"bufferView":41,"componentType":5123,"count":31380,"type":"SCALAR"},{"bufferView":42,"componentType":5126,"count":103018,"type":"VEC3"},{"bufferView":43,"componentType":5126,"count":103018,"type":"VEC3","min":[-0.9391639828681946,0.23927068710327148,-2.382310390472412],"max":[0.9419660568237305,1.3810052871704102,2.253715991973877]},{"bufferView":44,"componentType":5125,"count":360237,"type":"SCALAR"},{"bufferView":45,"componentType":5126,"count":92550,"type":"VEC3"},{"bufferView":46,"componentType":5126,"count":92550,"type":"VEC3","min":[-0.9419907331466675,0.18726927042007446,-2.2104926109313965],"max":[0.941633403301239,1.3810040950775146,2.3869075775146484]},{"bufferView":47,"componentType":5125,"count":326613,"type":"SCALAR"},{"bufferView":48,"componentType":5126,"count":15430,"type":"VEC3"},{"bufferView":49,"componentType":5126,"count":15430,"type":"VEC3","min":[-1.0210471153259277,0.5881888270378113,-2.3222568035125732],"max":[1.0210398435592651,1.2719193696975708,2.388047218322754]},{"bufferView":50,"componentType":5123,"count":39642,"type":"SCALAR"},{"bufferView":51,"componentType":5126,"count":3070,"type":"VEC3"},{"bufferView":52,"componentType":5126,"count":3070,"type":"VEC3","min":[-1.0088635683059692,0.9631950259208679,0.3729817867279053],"max":[1.0088562965393066,1.2146233320236206,0.49854353070259094]},{"bufferView":53,"componentType":5123,"count":10056,"type":"SCALAR"},{"bufferView":54,"componentType":5126,"count":1499,"type":"VEC3"},{"bufferView":55,"componentType":5126,"count":1499,"type":"VEC3","min":[0.3699967861175537,0.8470030426979065,0.36852046847343445],"max":[0.4151173532009125,0.8900496363639832,0.384449303150177]},{"bufferView":56,"componentType":5123,"count":4860,"type":"SCALAR"},{"bufferView":57,"componentType":5126,"count":32569,"type":"VEC3"},{"bufferView":58,"componentType":5126,"count":32569,"type":"VEC3","min":[-0.8300775289535522,0.3727900981903076,-2.2807652950286865],"max":[0.8300772309303284,0.915632963180542,-1.8060903549194336]},{"bufferView":59,"componentType":5123,"count":114384,"type":"SCALAR"},{"bufferView":60,"componentType":5126,"count":1162,"type":"VEC3"},{"bufferView":61,"componentType":5126,"count":1162,"type":"VEC3","min":[-0.25799572467803955,0.4006521701812744,-2.269890069961548],"max":[0.25799688696861267,0.8585172295570374,2.3970000743865967]},{"bufferView":62,"componentType":5126,"count":1162,"type":"VEC2"},{"bufferView":63,"componentType":5123,"count":3936,"type":"SCALAR"},{"bufferView":64,"componentType":5126,"count":192,"type":"VEC3"},{"bufferView":65,"componentType":5126,"count":192,"type":"VEC3","min":[-0.8996632695198059,0.3020102083683014,-2.286717653274536],"max":[0.8985366821289062,0.9838124513626099,2.350904941558838]},{"bufferView":66,"componentType":5126,"count":192,"type":"VEC2"},{"bufferView":67,"componentType":5123,"count":420,"type":"SCALAR"},{"bufferView":68,"componentType":5126,"count":14,"type":"VEC3"},{"bufferView":69,"componentType":5126,"count":14,"type":"VEC3","min":[0.3907029628753662,0.7385172843933105,0.31495773792266846],"max":[0.40190425515174866,0.743090808391571,0.3184889256954193]},{"bufferView":70,"componentType":5126,"count":14,"type":"VEC2"},{"bufferView":71,"componentType":5123,"count":30,"type":"SCALAR"},{"bufferView":72,"componentType":5126,"count":4443,"type":"VEC3"},{"bufferView":73,"componentType":5126,"count":4443,"type":"VEC3","min":[-0.8668309450149536,0.30145108699798584,-2.321232318878174],"max":[0.8668309450149536,0.9889570474624634,2.332902669906616]},{"bufferView":74,"componentType":5123,"count":12042,"type":"SCALAR"},{"bufferView":75,"componentType":5126,"count":31985,"type":"VEC3"},{"bufferView":76,"componentType":5126,"count":31985,"type":"VEC3","min":[-0.9179362654685974,0.2519080638885498,-1.3282546997070312],"max":[0.9179362654685974,0.9890072345733643,2.255417585372925]},{"bufferView":77,"componentType":5123,"count":91830,"type":"SCALAR"},{"bufferView":78,"componentType":5126,"count":392,"type":"VEC3"},{"bufferView":79,"componentType":5126,"count":392,"type":"VEC3","min":[0.3837125599384308,0.7377883195877075,0.3147457242012024],"max":[0.39366742968559265,0.7431374788284302,0.3199497163295746]},{"bufferView":80,"componentType":5123,"count":933,"type":"SCALAR"},{"bufferView":81,"componentType":5126,"count":7420,"type":"VEC3"},{"bufferView":82,"componentType":5126,"count":7420,"type":"VEC3","min":[-0.814214825630188,0.6049543023109436,1.9750040769577026],"max":[0.8142161965370178,0.7187460660934448,2.181473970413208]},{"bufferView":83,"componentType":5123,"count":15360,"type":"SCALAR"},{"bufferView":84,"componentType":5126,"count":13095,"type":"VEC3"},{"bufferView":85,"componentType":5126,"count":13095,"type":"VEC3","min":[-0.9368153214454651,0.1437973529100418,-2.3781888484954834],"max":[0.9368132948875427,1.3354289531707764,2.3307745456695557]},{"bufferView":86,"componentType":5123,"count":35748,"type":"SCALAR"},{"bufferView":87,"componentType":5126,"count":43099,"type":"VEC3"},{"bufferView":88,"componentType":5126,"count":43099,"type":"VEC3","min":[-0.8075345754623413,0.15310148894786835,-1.5067386627197266],"max":[0.8075346350669861,0.5266183018684387,1.7169805765151978]},{"bufferView":89,"componentType":5126,"count":43099,"type":"VEC4"},{"bufferView":90,"componentType":5126,"count":43099,"type":"VEC2"},{"bufferView":91,"componentType":5123,"count":51840,"type":"SCALAR"},{"bufferView":92,"componentType":5126,"count":27422,"type":"VEC3"},{"bufferView":93,"componentType":5126,"count":27422,"type":"VEC3","min":[-0.93088698387146,-7.748603980672897e-10,-1.6632499694824219],"max":[0.9308835864067078,0.6815428733825684,1.8700820207595825]},{"bufferView":94,"componentType":5126,"count":27422,"type":"VEC2"},{"bufferView":95,"componentType":5123,"count":97920,"type":"SCALAR"},{"bufferView":96,"componentType":5126,"count":6485,"type":"VEC3"},{"bufferView":97,"componentType":5126,"count":6485,"type":"VEC3","min":[-0.8694573640823364,0.3137871325016022,-1.3494545221328735],"max":[0.8694573640823364,0.36776262521743774,1.5562796592712402]},{"bufferView":98,"componentType":5126,"count":6485,"type":"VEC2"},{"bufferView":99,"componentType":5123,"count":22680,"type":"SCALAR"},{"bufferView":100,"componentType":5126,"count":1647,"type":"VEC3"},{"bufferView":101,"componentType":5126,"count":1647,"type":"VEC3","min":[0.37175363302230835,0.8488674163818359,0.3689518868923187],"max":[0.4133605659008026,0.888444721698761,0.3832908570766449]},{"bufferView":102,"componentType":5126,"count":1647,"type":"VEC2"},{"bufferView":103,"componentType":5123,"count":5670,"type":"SCALAR"},{"bufferView":104,"componentType":5126,"count":23957,"type":"VEC3"},{"bufferView":105,"componentType":5126,"count":23957,"type":"VEC3","min":[-0.8501129746437073,0.1482386291027069,-1.2078547477722168],"max":[0.8501129746437073,0.5182805061340332,1.4440596103668213]},{"bufferView":106,"componentType":5123,"count":65424,"type":"SCALAR"},{"bufferView":107,"componentType":5126,"count":2347,"type":"VEC3"},{"bufferView":108,"componentType":5126,"count":2347,"type":"VEC3","min":[-0.20514413714408875,0.8098800182342529,0.5298470258712769],"max":[0.587746798992157,0.9761545062065125,0.7024991512298584]},{"bufferView":109,"componentType":5126,"count":2347,"type":"VEC2"},{"bufferView":110,"componentType":5123,"count":7308,"type":"SCALAR"},{"bufferView":111,"componentType":5126,"count":687,"type":"VEC3"},{"bufferView":112,"componentType":5126,"count":687,"type":"VEC3","min":[0.2586880624294281,0.8298553228378296,0.3595646619796753],"max":[0.5262805223464966,0.8746419548988342,0.39299336075782776]},{"bufferView":113,"componentType":5126,"count":687,"type":"VEC2"},{"bufferView":114,"componentType":5123,"count":2052,"type":"SCALAR"},{"bufferView":115,"componentType":5126,"count":13144,"type":"VEC3"},{"bufferView":116,"componentType":5126,"count":13144,"type":"VEC3","min":[-0.6024684906005859,0.7579037547111511,-1.177448034286499],"max":[0.6024690270423889,1.2425016164779663,-0.2733652591705322]},{"bufferView":117,"componentType":5123,"count":46848,"type":"SCALAR"},{"bufferView":118,"componentType":5126,"count":34146,"type":"VEC3"},{"bufferView":119,"componentType":5126,"count":34146,"type":"VEC3","min":[-0.8268261551856995,0.3740028440952301,-2.2709031105041504],"max":[0.8268265724182129,0.9067256450653076,-1.8543916940689087]},{"bufferView":120,"componentType":5123,"count":58422,"type":"SCALAR"},{"bufferView":121,"componentType":5126,"count":5248,"type":"VEC3"},{"bufferView":122,"componentType":5126,"count":5248,"type":"VEC3","min":[-0.8108468055725098,0.825809121131897,-2.275913953781128],"max":[0.8108471035957336,0.9116220474243164,-1.9738073348999023]},{"bufferView":123,"componentType":5123,"count":18624,"type":"SCALAR"},{"bufferView":124,"componentType":5126,"count":7767,"type":"VEC3"},{"bufferView":125,"componentType":5126,"count":7767,"type":"VEC3","min":[-0.5321061611175537,1.266900658607483,-1.1635814905166626],"max":[0.532106339931488,1.416982889175415,0.2657487690448761]},{"bufferView":126,"componentType":5126,"count":7767,"type":"VEC2"},{"bufferView":127,"componentType":5123,"count":29184,"type":"SCALAR"},{"bufferView":128,"componentType":5126,"count":72024,"type":"VEC3"},{"bufferView":129,"componentType":5126,"count":72024,"type":"VEC3","min":[-0.7738586664199829,0.8393926620483398,-2.2529497146606445],"max":[0.773857831954956,0.9112223982810974,-2.0590596199035645]},{"bufferView":130,"componentType":5125,"count":98691,"type":"SCALAR"},{"bufferView":131,"componentType":5126,"count":14885,"type":"VEC3"},{"bufferView":132,"componentType":5126,"count":14885,"type":"VEC3","min":[-0.8380856513977051,0.7827958464622498,-2.2827377319335938],"max":[0.8380860090255737,0.9299544095993042,-1.8066654205322266]},{"bufferView":133,"componentType":5123,"count":54048,"type":"SCALAR"},{"bufferView":134,"componentType":5126,"count":22259,"type":"VEC3"},{"bufferView":135,"componentType":5126,"count":22259,"type":"VEC3","min":[-0.777682900428772,0.6242671608924866,-1.8894721269607544],"max":[0.7776846289634705,1.3338662385940552,2.1574838161468506]},{"bufferView":136,"componentType":5123,"count":76386,"type":"SCALAR"},{"bufferView":137,"componentType":5126,"count":272766,"type":"VEC3"},{"bufferView":138,"componentType":5126,"count":272766,"type":"VEC3","min":[-1.0234676599502563,0.5854020118713379,-2.2403321266174316],"max":[1.0234594345092773,1.2719205617904663,2.3885843753814697]},{"bufferView":139,"componentType":5125,"count":285756,"type":"SCALAR"},{"bufferView":140,"componentType":5126,"count":67673,"type":"VEC3"},{"bufferView":141,"componentType":5126,"count":67673,"type":"VEC3","min":[-0.9279269576072693,0.06542983651161194,-1.5980216264724731],"max":[0.9267317652702332,0.6161113977432251,1.8048570156097412]},{"bufferView":142,"componentType":5125,"count":218640,"type":"SCALAR"}],"bufferViews":[{"buffer":0,"byteOffset":0,"byteLength":1097844},{"buffer":0,"byteOffset":1097844,"byteLength":1097844},{"buffer":0,"byteOffset":2195688,"byteLength":1114464},{"buffer":0,"byteOffset":3310152,"byteLength":5208},{"buffer":0,"byteOffset":3315360,"byteLength":5208},{"buffer":0,"byteOffset":3320568,"byteLength":2268},{"buffer":0,"byteOffset":3322836,"byteLength":768924},{"buffer":0,"byteOffset":4091760,"byteLength":768924},{"buffer":0,"byteOffset":4860684,"byteLength":717810},{"buffer":0,"byteOffset":5578496,"byteLength":658596},{"buffer":0,"byteOffset":6237092,"byteLength":658596},{"buffer":0,"byteOffset":6895688,"byteLength":362856},{"buffer":0,"byteOffset":7258544,"byteLength":812112},{"buffer":0,"byteOffset":8070656,"byteLength":812112},{"buffer":0,"byteOffset":8882768,"byteLength":874560},{"buffer":0,"byteOffset":9757328,"byteLength":672504},{"buffer":0,"byteOffset":10429832,"byteLength":672504},{"buffer":0,"byteOffset":11102336,"byteLength":346698},{"buffer":0,"byteOffset":11449036,"byteLength":1080060},{"buffer":0,"byteOffset":12529096,"byteLength":1080060},{"buffer":0,"byteOffset":13609156,"byteLength":1104336},{"buffer":0,"byteOffset":14713492,"byteLength":32124},{"buffer":0,"byteOffset":14745616,"byteLength":32124},{"buffer":0,"byteOffset":14777740,"byteLength":16680},{"buffer":0,"byteOffset":14794420,"byteLength":887004},{"buffer":0,"byteOffset":15681424,"byteLength":887004},{"buffer":0,"byteOffset":16568428,"byteLength":1049808},{"buffer":0,"byteOffset":17618236,"byteLength":1177548},{"buffer":0,"byteOffset":18795784,"byteLength":1177548},{"buffer":0,"byteOffset":19973332,"byteLength":974184},{"buffer":0,"byteOffset":20947516,"byteLength":703788},{"buffer":0,"byteOffset":21651304,"byteLength":703788},{"buffer":0,"byteOffset":22355092,"byteLength":391716},{"buffer":0,"byteOffset":22746808,"byteLength":90228},{"buffer":0,"byteOffset":22837036,"byteLength":90228},{"buffer":0,"byteOffset":22927264,"byteLength":48696},{"buffer":0,"byteOffset":22975960,"byteLength":335988},{"buffer":0,"byteOffset":23311948,"byteLength":335988},{"buffer":0,"byteOffset":23647936,"byteLength":134592},{"buffer":0,"byteOffset":23782528,"byteLength":117948},{"buffer":0,"byteOffset":23900476,"byteLength":117948},{"buffer":0,"byteOffset":24018424,"byteLength":62760},{"buffer":0,"byteOffset":24081184,"byteLength":1236216},{"buffer":0,"byteOffset":25317400,"byteLength":1236216},{"buffer":0,"byteOffset":26553616,"byteLength":1440948},{"buffer":0,"byteOffset":27994564,"byteLength":1110600},{"buffer":0,"byteOffset":29105164,"byteLength":1110600},{"buffer":0,"byteOffset":30215764,"byteLength":1306452},{"buffer":0,"byteOffset":31522216,"byteLength":185160},{"buffer":0,"byteOffset":31707376,"byteLength":185160},{"buffer":0,"byteOffset":31892536,"byteLength":79284},{"buffer":0,"byteOffset":31971820,"byteLength":36840},{"buffer":0,"byteOffset":32008660,"byteLength":36840},{"buffer":0,"byteOffset":32045500,"byteLength":20112},{"buffer":0,"byteOffset":32065612,"byteLength":17988},{"buffer":0,"byteOffset":32083600,"byteLength":17988},{"buffer":0,"byteOffset":32101588,"byteLength":9720},{"buffer":0,"byteOffset":32111308,"byteLength":390828},{"buffer":0,"byteOffset":32502136,"byteLength":390828},{"buffer":0,"byteOffset":32892964,"byteLength":228768},{"buffer":0,"byteOffset":33121732,"byteLength":13944},{"buffer":0,"byteOffset":33135676,"byteLength":13944},{"buffer":0,"byteOffset":33149620,"byteLength":9296},{"buffer":0,"byteOffset":33158916,"byteLength":7872},{"buffer":0,"byteOffset":33166788,"byteLength":2304},{"buffer":0,"byteOffset":33169092,"byteLength":2304},{"buffer":0,"byteOffset":33171396,"byteLength":1536},{"buffer":0,"byteOffset":33172932,"byteLength":840},{"buffer":0,"byteOffset":33173772,"byteLength":168},{"buffer":0,"byteOffset":33173940,"byteLength":168},{"buffer":0,"byteOffset":33174108,"byteLength":112},{"buffer":0,"byteOffset":33174220,"byteLength":60},{"buffer":0,"byteOffset":33174280,"byteLength":53316},{"buffer":0,"byteOffset":33227596,"byteLength":53316},{"buffer":0,"byteOffset":33280912,"byteLength":24084},{"buffer":0,"byteOffset":33304996,"byteLength":383820},{"buffer":0,"byteOffset":33688816,"byteLength":383820},{"buffer":0,"byteOffset":34072636,"byteLength":183660},{"buffer":0,"byteOffset":34256296,"byteLength":4704},{"buffer":0,"byteOffset":34261000,"byteLength":4704},{"buffer":0,"byteOffset":34265704,"byteLength":1866},{"buffer":0,"byteOffset":34267572,"byteLength":89040},{"buffer":0,"byteOffset":34356612,"byteLength":89040},{"buffer":0,"byteOffset":34445652,"byteLength":30720},{"buffer":0,"byteOffset":34476372,"byteLength":157140},{"buffer":0,"byteOffset":34633512,"byteLength":157140},{"buffer":0,"byteOffset":34790652,"byteLength":71496},{"buffer":0,"byteOffset":34862148,"byteLength":517188},{"buffer":0,"byteOffset":35379336,"byteLength":517188},{"buffer":0,"byteOffset":35896524,"byteLength":689584},{"buffer":0,"byteOffset":36586108,"byteLength":344792},{"buffer":0,"byteOffset":36930900,"byteLength":103680},{"buffer":0,"byteOffset":37034580,"byteLength":329064},{"buffer":0,"byteOffset":37363644,"byteLength":329064},{"buffer":0,"byteOffset":37692708,"byteLength":219376},{"buffer":0,"byteOffset":37912084,"byteLength":195840},{"buffer":0,"byteOffset":38107924,"byteLength":77820},{"buffer":0,"byteOffset":38185744,"byteLength":77820},{"buffer":0,"byteOffset":38263564,"byteLength":51880},{"buffer":0,"byteOffset":38315444,"byteLength":45360},{"buffer":0,"byteOffset":38360804,"byteLength":19764},{"buffer":0,"byteOffset":38380568,"byteLength":19764},{"buffer":0,"byteOffset":38400332,"byteLength":13176},{"buffer":0,"byteOffset":38413508,"byteLength":11340},{"buffer":0,"byteOffset":38424848,"byteLength":287484},{"buffer":0,"byteOffset":38712332,"byteLength":287484},{"buffer":0,"byteOffset":38999816,"byteLength":130848},{"buffer":0,"byteOffset":39130664,"byteLength":28164},{"buffer":0,"byteOffset":39158828,"byteLength":28164},{"buffer":0,"byteOffset":39186992,"byteLength":18776},{"buffer":0,"byteOffset":39205768,"byteLength":14616},{"buffer":0,"byteOffset":39220384,"byteLength":8244},{"buffer":0,"byteOffset":39228628,"byteLength":8244},{"buffer":0,"byteOffset":39236872,"byteLength":5496},{"buffer":0,"byteOffset":39242368,"byteLength":4104},{"buffer":0,"byteOffset":39246472,"byteLength":157728},{"buffer":0,"byteOffset":39404200,"byteLength":157728},{"buffer":0,"byteOffset":39561928,"byteLength":93696},{"buffer":0,"byteOffset":39655624,"byteLength":409752},{"buffer":0,"byteOffset":40065376,"byteLength":409752},{"buffer":0,"byteOffset":40475128,"byteLength":116844},{"buffer":0,"byteOffset":40591972,"byteLength":62976},{"buffer":0,"byteOffset":40654948,"byteLength":62976},{"buffer":0,"byteOffset":40717924,"byteLength":37248},{"buffer":0,"byteOffset":40755172,"byteLength":93204},{"buffer":0,"byteOffset":40848376,"byteLength":93204},{"buffer":0,"byteOffset":40941580,"byteLength":62136},{"buffer":0,"byteOffset":41003716,"byteLength":58368},{"buffer":0,"byteOffset":41062084,"byteLength":864288},{"buffer":0,"byteOffset":41926372,"byteLength":864288},{"buffer":0,"byteOffset":42790660,"byteLength":394764},{"buffer":0,"byteOffset":43185424,"byteLength":178620},{"buffer":0,"byteOffset":43364044,"byteLength":178620},{"buffer":0,"byteOffset":43542664,"byteLength":108096},{"buffer":0,"byteOffset":43650760,"byteLength":267108},{"buffer":0,"byteOffset":43917868,"byteLength":267108},{"buffer":0,"byteOffset":44184976,"byteLength":152772},{"buffer":0,"byteOffset":44337748,"byteLength":3273192},{"buffer":0,"byteOffset":47610940,"byteLength":3273192},{"buffer":0,"byteOffset":50884132,"byteLength":1143024},{"buffer":0,"byteOffset":52027156,"byteLength":812076},{"buffer":0,"byteOffset":52839232,"byteLength":812076},{"buffer":0,"byteOffset":53651308,"byteLength":874560}],"buffers":[{"uri":"model.bin","byteLength":54525868}]}